<?xml version="1.0" encoding="UTF-8" standalone="no"?>
<!DOCTYPE svg PUBLIC "-//W3C//DTD SVG 1.1//EN"
 "http://www.w3.org/Graphics/SVG/1.1/DTD/svg11.dtd">
<!-- Generated by graphviz version 5.0.0 (20220707.1540)
 -->
<!-- Title: dependencies Pages: 1 -->
<svg width="1374pt" height="247pt"
 viewBox="0.00 0.00 1374.00 246.80" xmlns="http://www.w3.org/2000/svg" xmlns:xlink="http://www.w3.org/1999/xlink">
<g id="graph0" class="graph" transform="scale(1 1) rotate(0) translate(4 242.8)">
<title>dependencies</title>
<polygon fill="white" stroke="transparent" points="-4,4 -4,-242.8 1370,-242.8 1370,4 -4,4"/>
<text text-anchor="middle" x="683" y="-8.2" font-family="sans-serif" font-size="14.00">dependencies</text>
<g id="clust1" class="cluster">
<title>cluster_AppModule</title>
<polygon fill="none" stroke="black" stroke-dasharray="1,5" points="8,-32.8 8,-230.8 1358,-230.8 1358,-32.8 8,-32.8"/>
</g>
<g id="clust2" class="cluster">
<title>cluster_AppModule_declarations</title>
<polygon fill="none" stroke="black" points="168,-40.8 168,-92.8 1350,-92.8 1350,-40.8 168,-40.8"/>
</g>
<g id="clust11" class="cluster">
<title>cluster_AppModule_imports</title>
<polygon fill="none" stroke="black" points="16,-40.8 16,-92.8 160,-92.8 160,-40.8 16,-40.8"/>
</g>
<g id="clust13" class="cluster">
<title>cluster_AppModule_bootstrap</title>
<polygon fill="none" stroke="black" points="618,-170.8 618,-222.8 742,-222.8 742,-170.8 618,-170.8"/>
</g>
<!-- AdventureComponent -->
<g id="node1" class="node">
<title>AdventureComponent</title>
<polygon fill="#ffffb3" stroke="black" points="1342.42,-84.8 1201.58,-84.8 1201.58,-48.8 1342.42,-48.8 1342.42,-84.8"/>
<text text-anchor="middle" x="1272" y="-62.6" font-family="Times,serif" font-size="14.00">AdventureComponent</text>
</g>
<!-- AppModule -->
<g id="node9" class="node">
<title>AppModule</title>
<polygon fill="#8dd3c7" stroke="black" points="721.66,-149.8 718.66,-153.8 697.66,-153.8 694.66,-149.8 638.34,-149.8 638.34,-113.8 721.66,-113.8 721.66,-149.8"/>
<text text-anchor="middle" x="680" y="-127.6" font-family="Times,serif" font-size="14.00">AppModule</text>
</g>
<!-- AdventureComponent&#45;&gt;AppModule -->
<g id="edge1" class="edge">
<title>AdventureComponent&#45;&gt;AppModule</title>
<path fill="none" stroke="black" d="M1272,-84.81C1272,-107.29 1272,-142.8 1272,-142.8 1272,-142.8 732.1,-142.8 732.1,-142.8"/>
<polygon fill="black" stroke="black" points="732.1,-139.3 722.1,-142.8 732.1,-146.3 732.1,-139.3"/>
</g>
<!-- AdventureInfoComponent -->
<g id="node2" class="node">
<title>AdventureInfoComponent</title>
<polygon fill="#ffffb3" stroke="black" points="1183.75,-84.8 1020.25,-84.8 1020.25,-48.8 1183.75,-48.8 1183.75,-84.8"/>
<text text-anchor="middle" x="1102" y="-62.6" font-family="Times,serif" font-size="14.00">AdventureInfoComponent</text>
</g>
<!-- AdventureInfoComponent&#45;&gt;AppModule -->
<g id="edge2" class="edge">
<title>AdventureInfoComponent&#45;&gt;AppModule</title>
<path fill="none" stroke="black" d="M1102,-84.93C1102,-105.37 1102,-135.8 1102,-135.8 1102,-135.8 732.01,-135.8 732.01,-135.8"/>
<polygon fill="black" stroke="black" points="732.01,-132.3 722.01,-135.8 732.01,-139.3 732.01,-132.3"/>
</g>
<!-- AppComponent -->
<g id="node3" class="node">
<title>AppComponent</title>
<polygon fill="#ffffb3" stroke="black" points="1001.94,-84.8 896.06,-84.8 896.06,-48.8 1001.94,-48.8 1001.94,-84.8"/>
<text text-anchor="middle" x="949" y="-62.6" font-family="Times,serif" font-size="14.00">AppComponent</text>
</g>
<!-- AppComponent&#45;&gt;AppModule -->
<g id="edge3" class="edge">
<title>AppComponent&#45;&gt;AppModule</title>
<path fill="none" stroke="black" d="M949,-85.07C949,-103.36 949,-128.8 949,-128.8 949,-128.8 731.74,-128.8 731.74,-128.8"/>
<polygon fill="black" stroke="black" points="731.74,-125.3 721.74,-128.8 731.74,-132.3 731.74,-125.3"/>
</g>
<!-- HeaderComponent -->
<g id="node4" class="node">
<title>HeaderComponent</title>
<polygon fill="#ffffb3" stroke="black" points="877.75,-84.8 756.25,-84.8 756.25,-48.8 877.75,-48.8 877.75,-84.8"/>
<text text-anchor="middle" x="817" y="-62.6" font-family="Times,serif" font-size="14.00">HeaderComponent</text>
</g>
<!-- HeaderComponent&#45;&gt;AppModule -->
<g id="edge4" class="edge">
<title>HeaderComponent&#45;&gt;AppModule</title>
<path fill="none" stroke="black" d="M817,-84.81C817,-100.85 817,-121.8 817,-121.8 817,-121.8 731.85,-121.8 731.85,-121.8"/>
<polygon fill="black" stroke="black" points="731.85,-118.3 721.85,-121.8 731.85,-125.3 731.85,-118.3"/>
</g>
<!-- HomeComponent -->
<g id="node5" class="node">
<title>HomeComponent</title>
<polygon fill="#ffffb3" stroke="black" points="737.55,-84.8 622.45,-84.8 622.45,-48.8 737.55,-48.8 737.55,-84.8"/>
<text text-anchor="middle" x="680" y="-62.6" font-family="Times,serif" font-size="14.00">HomeComponent</text>
</g>
<!-- HomeComponent&#45;&gt;AppModule -->
<g id="edge5" class="edge">
<title>HomeComponent&#45;&gt;AppModule</title>
<path fill="none" stroke="black" d="M680,-84.91C680,-84.91 680,-103.79 680,-103.79"/>
<polygon fill="black" stroke="black" points="676.5,-103.79 680,-113.79 683.5,-103.79 676.5,-103.79"/>
</g>
<!-- SettingsComponent -->
<g id="node6" class="node">
<title>SettingsComponent</title>
<polygon fill="#ffffb3" stroke="black" points="604.45,-84.8 477.55,-84.8 477.55,-48.8 604.45,-48.8 604.45,-84.8"/>
<text text-anchor="middle" x="541" y="-62.6" font-family="Times,serif" font-size="14.00">SettingsComponent</text>
</g>
<!-- SettingsComponent&#45;&gt;AppModule -->
<g id="edge6" class="edge">
<title>SettingsComponent&#45;&gt;AppModule</title>
<path fill="none" stroke="black" d="M541,-84.81C541,-100.85 541,-121.8 541,-121.8 541,-121.8 628.3,-121.8 628.3,-121.8"/>
<polygon fill="black" stroke="black" points="628.3,-125.3 638.3,-121.8 628.3,-118.3 628.3,-125.3"/>
</g>
<!-- UserInfoComponent -->
<g id="node7" class="node">
<title>UserInfoComponent</title>
<polygon fill="#ffffb3" stroke="black" points="459.59,-84.8 328.41,-84.8 328.41,-48.8 459.59,-48.8 459.59,-84.8"/>
<text text-anchor="middle" x="394" y="-62.6" font-family="Times,serif" font-size="14.00">UserInfoComponent</text>
</g>
<!-- UserInfoComponent&#45;&gt;AppModule -->
<g id="edge7" class="edge">
<title>UserInfoComponent&#45;&gt;AppModule</title>
<path fill="none" stroke="black" d="M394,-85.07C394,-103.36 394,-128.8 394,-128.8 394,-128.8 628.11,-128.8 628.11,-128.8"/>
<polygon fill="black" stroke="black" points="628.11,-132.3 638.11,-128.8 628.11,-125.3 628.11,-132.3"/>
</g>
<!-- UserStatsComponent -->
<g id="node8" class="node">
<title>UserStatsComponent</title>
<polygon fill="#ffffb3" stroke="black" points="310.49,-84.8 175.51,-84.8 175.51,-48.8 310.49,-48.8 310.49,-84.8"/>
<text text-anchor="middle" x="243" y="-62.6" font-family="Times,serif" font-size="14.00">UserStatsComponent</text>
</g>
<!-- UserStatsComponent&#45;&gt;AppModule -->
<g id="edge8" class="edge">
<title>UserStatsComponent&#45;&gt;AppModule</title>
<path fill="none" stroke="black" d="M243,-84.93C243,-105.37 243,-135.8 243,-135.8 243,-135.8 628.1,-135.8 628.1,-135.8"/>
<polygon fill="black" stroke="black" points="628.1,-139.3 638.1,-135.8 628.1,-132.3 628.1,-139.3"/>
</g>
<!-- AppComponent  -->
<g id="node11" class="node">
<title>AppComponent </title>
<polygon fill="#80b1d3" stroke="black" points="734.44,-214.8 625.56,-214.8 625.56,-178.8 734.44,-178.8 734.44,-214.8"/>
<text text-anchor="middle" x="680" y="-192.6" font-family="Times,serif" font-size="14.00">AppComponent </text>
</g>
<!-- AppModule&#45;&gt;AppComponent  -->
<g id="edge10" class="edge">
<title>AppModule&#45;&gt;AppComponent </title>
<path fill="none" stroke="black" stroke-dasharray="1,5" d="M680,-149.91C680,-149.91 680,-168.79 680,-168.79"/>
<polygon fill="black" stroke="black" points="676.5,-168.79 680,-178.79 683.5,-168.79 676.5,-168.79"/>
</g>
<!-- AppRoutingModule -->
<g id="node10" class="node">
<title>AppRoutingModule</title>
<polygon fill="#8dd3c7" stroke="black" points="152.28,-84.8 149.28,-88.8 128.28,-88.8 125.28,-84.8 23.72,-84.8 23.72,-48.8 152.28,-48.8 152.28,-84.8"/>
<text text-anchor="middle" x="88" y="-62.6" font-family="Times,serif" font-size="14.00">AppRoutingModule</text>
</g>
<!-- AppRoutingModule&#45;&gt;AppModule -->
<g id="edge9" class="edge">
<title>AppRoutingModule&#45;&gt;AppModule</title>
<path fill="none" stroke="black" d="M88,-84.81C88,-107.29 88,-142.8 88,-142.8 88,-142.8 627.9,-142.8 627.9,-142.8"/>
<polygon fill="black" stroke="black" points="627.9,-146.3 637.9,-142.8 627.9,-139.3 627.9,-146.3"/>
</g>
</g>
</svg>
