<?xml version="1.0" encoding="UTF-8" standalone="no"?>
<!DOCTYPE svg PUBLIC "-//W3C//DTD SVG 1.1//EN"
 "http://www.w3.org/Graphics/SVG/1.1/DTD/svg11.dtd">
<!-- Generated by graphviz version 5.0.0 (20220707.1540)
 -->
<!-- Title: dependencies Pages: 1 -->
<svg width="1374pt" height="247pt"
 viewBox="0.00 0.00 1374.00 246.80" xmlns="http://www.w3.org/2000/svg" xmlns:xlink="http://www.w3.org/1999/xlink">
<g id="graph0" class="graph" transform="scale(1 1) rotate(0) translate(4 242.8)">
<title>dependencies</title>
<polygon fill="white" stroke="transparent" points="-4,4 -4,-242.8 1370,-242.8 1370,4 -4,4"/>
<text text-anchor="middle" x="683" y="-8.2" font-family="sans-serif" font-size="14.00">dependencies</text>
<g id="clust1" class="cluster">
<title>cluster_AppModule</title>
<polygon fill="none" stroke="black" stroke-dasharray="1,5" points="8,-32.8 8,-230.8 1358,-230.8 1358,-32.8 8,-32.8"/>
</g>
<g id="clust13" class="cluster">
<title>cluster_AppModule_bootstrap</title>
<polygon fill="none" stroke="black" points="603,-170.8 603,-222.8 727,-222.8 727,-170.8 603,-170.8"/>
</g>
<g id="clust11" class="cluster">
<title>cluster_AppModule_imports</title>
<polygon fill="none" stroke="black" points="1206,-40.8 1206,-92.8 1350,-92.8 1350,-40.8 1206,-40.8"/>
</g>
<g id="clust2" class="cluster">
<title>cluster_AppModule_declarations</title>
<polygon fill="none" stroke="black" points="16,-40.8 16,-92.8 1198,-92.8 1198,-40.8 16,-40.8"/>
</g>
<!-- AdventureComponent -->
<g id="node1" class="node">
<title>AdventureComponent</title>
<polygon fill="#ffffb3" stroke="black" points="1190.42,-84.8 1049.58,-84.8 1049.58,-48.8 1190.42,-48.8 1190.42,-84.8"/>
<text text-anchor="middle" x="1120" y="-62.6" font-family="Times,serif" font-size="14.00">AdventureComponent</text>
</g>
<!-- AppModule -->
<g id="node9" class="node">
<title>AppModule</title>
<polygon fill="#8dd3c7" stroke="black" points="706.66,-149.8 703.66,-153.8 682.66,-153.8 679.66,-149.8 623.34,-149.8 623.34,-113.8 706.66,-113.8 706.66,-149.8"/>
<text text-anchor="middle" x="665" y="-127.6" font-family="Times,serif" font-size="14.00">AppModule</text>
</g>
<!-- AdventureComponent&#45;&gt;AppModule -->
<g id="edge1" class="edge">
<title>AdventureComponent&#45;&gt;AppModule</title>
<path fill="none" stroke="black" d="M1120,-84.93C1120,-105.37 1120,-135.8 1120,-135.8 1120,-135.8 716.99,-135.8 716.99,-135.8"/>
<polygon fill="black" stroke="black" points="716.99,-132.3 706.99,-135.8 716.99,-139.3 716.99,-132.3"/>
</g>
<!-- AdventureInfoComponent -->
<g id="node2" class="node">
<title>AdventureInfoComponent</title>
<polygon fill="#ffffb3" stroke="black" points="1031.75,-84.8 868.25,-84.8 868.25,-48.8 1031.75,-48.8 1031.75,-84.8"/>
<text text-anchor="middle" x="950" y="-62.6" font-family="Times,serif" font-size="14.00">AdventureInfoComponent</text>
</g>
<!-- AdventureInfoComponent&#45;&gt;AppModule -->
<g id="edge2" class="edge">
<title>AdventureInfoComponent&#45;&gt;AppModule</title>
<path fill="none" stroke="black" d="M950,-85.07C950,-103.36 950,-128.8 950,-128.8 950,-128.8 716.75,-128.8 716.75,-128.8"/>
<polygon fill="black" stroke="black" points="716.75,-125.3 706.75,-128.8 716.75,-132.3 716.75,-125.3"/>
</g>
<!-- AppComponent -->
<g id="node3" class="node">
<title>AppComponent</title>
<polygon fill="#ffffb3" stroke="black" points="849.94,-84.8 744.06,-84.8 744.06,-48.8 849.94,-48.8 849.94,-84.8"/>
<text text-anchor="middle" x="797" y="-62.6" font-family="Times,serif" font-size="14.00">AppComponent</text>
</g>
<!-- AppComponent&#45;&gt;AppModule -->
<g id="edge3" class="edge">
<title>AppComponent&#45;&gt;AppModule</title>
<path fill="none" stroke="black" d="M797,-84.81C797,-100.85 797,-121.8 797,-121.8 797,-121.8 716.77,-121.8 716.77,-121.8"/>
<polygon fill="black" stroke="black" points="716.77,-118.3 706.77,-121.8 716.77,-125.3 716.77,-118.3"/>
</g>
<!-- HeaderComponent -->
<g id="node4" class="node">
<title>HeaderComponent</title>
<polygon fill="#ffffb3" stroke="black" points="725.75,-84.8 604.25,-84.8 604.25,-48.8 725.75,-48.8 725.75,-84.8"/>
<text text-anchor="middle" x="665" y="-62.6" font-family="Times,serif" font-size="14.00">HeaderComponent</text>
</g>
<!-- HeaderComponent&#45;&gt;AppModule -->
<g id="edge4" class="edge">
<title>HeaderComponent&#45;&gt;AppModule</title>
<path fill="none" stroke="black" d="M665,-84.91C665,-84.91 665,-103.79 665,-103.79"/>
<polygon fill="black" stroke="black" points="661.5,-103.79 665,-113.79 668.5,-103.79 661.5,-103.79"/>
</g>
<!-- HomeComponent -->
<g id="node5" class="node">
<title>HomeComponent</title>
<polygon fill="#ffffb3" stroke="black" points="585.55,-84.8 470.45,-84.8 470.45,-48.8 585.55,-48.8 585.55,-84.8"/>
<text text-anchor="middle" x="528" y="-62.6" font-family="Times,serif" font-size="14.00">HomeComponent</text>
</g>
<!-- HomeComponent&#45;&gt;AppModule -->
<g id="edge5" class="edge">
<title>HomeComponent&#45;&gt;AppModule</title>
<path fill="none" stroke="black" d="M528,-84.81C528,-100.85 528,-121.8 528,-121.8 528,-121.8 613.15,-121.8 613.15,-121.8"/>
<polygon fill="black" stroke="black" points="613.15,-125.3 623.15,-121.8 613.15,-118.3 613.15,-125.3"/>
</g>
<!-- SettingsComponent -->
<g id="node6" class="node">
<title>SettingsComponent</title>
<polygon fill="#ffffb3" stroke="black" points="452.45,-84.8 325.55,-84.8 325.55,-48.8 452.45,-48.8 452.45,-84.8"/>
<text text-anchor="middle" x="389" y="-62.6" font-family="Times,serif" font-size="14.00">SettingsComponent</text>
</g>
<!-- SettingsComponent&#45;&gt;AppModule -->
<g id="edge6" class="edge">
<title>SettingsComponent&#45;&gt;AppModule</title>
<path fill="none" stroke="black" d="M389,-85.07C389,-103.36 389,-128.8 389,-128.8 389,-128.8 613.08,-128.8 613.08,-128.8"/>
<polygon fill="black" stroke="black" points="613.08,-132.3 623.08,-128.8 613.08,-125.3 613.08,-132.3"/>
</g>
<!-- UserInfoComponent -->
<g id="node7" class="node">
<title>UserInfoComponent</title>
<polygon fill="#ffffb3" stroke="black" points="307.59,-84.8 176.41,-84.8 176.41,-48.8 307.59,-48.8 307.59,-84.8"/>
<text text-anchor="middle" x="242" y="-62.6" font-family="Times,serif" font-size="14.00">UserInfoComponent</text>
</g>
<!-- UserInfoComponent&#45;&gt;AppModule -->
<g id="edge7" class="edge">
<title>UserInfoComponent&#45;&gt;AppModule</title>
<path fill="none" stroke="black" d="M242,-84.93C242,-105.37 242,-135.8 242,-135.8 242,-135.8 613.28,-135.8 613.28,-135.8"/>
<polygon fill="black" stroke="black" points="613.28,-139.3 623.28,-135.8 613.28,-132.3 613.28,-139.3"/>
</g>
<!-- UserStatsComponent -->
<g id="node8" class="node">
<title>UserStatsComponent</title>
<polygon fill="#ffffb3" stroke="black" points="158.49,-84.8 23.51,-84.8 23.51,-48.8 158.49,-48.8 158.49,-84.8"/>
<text text-anchor="middle" x="91" y="-62.6" font-family="Times,serif" font-size="14.00">UserStatsComponent</text>
</g>
<!-- UserStatsComponent&#45;&gt;AppModule -->
<g id="edge8" class="edge">
<title>UserStatsComponent&#45;&gt;AppModule</title>
<path fill="none" stroke="black" d="M91,-84.81C91,-107.29 91,-142.8 91,-142.8 91,-142.8 613.26,-142.8 613.26,-142.8"/>
<polygon fill="black" stroke="black" points="613.26,-146.3 623.26,-142.8 613.26,-139.3 613.26,-146.3"/>
</g>
<!-- AppComponent  -->
<g id="node11" class="node">
<title>AppComponent </title>
<polygon fill="#80b1d3" stroke="black" points="719.44,-214.8 610.56,-214.8 610.56,-178.8 719.44,-178.8 719.44,-214.8"/>
<text text-anchor="middle" x="665" y="-192.6" font-family="Times,serif" font-size="14.00">AppComponent </text>
</g>
<!-- AppModule&#45;&gt;AppComponent  -->
<g id="edge10" class="edge">
<title>AppModule&#45;&gt;AppComponent </title>
<path fill="none" stroke="black" stroke-dasharray="1,5" d="M665,-149.91C665,-149.91 665,-168.79 665,-168.79"/>
<polygon fill="black" stroke="black" points="661.5,-168.79 665,-178.79 668.5,-168.79 661.5,-168.79"/>
</g>
<!-- AppRoutingModule -->
<g id="node10" class="node">
<title>AppRoutingModule</title>
<polygon fill="#8dd3c7" stroke="black" points="1342.28,-84.8 1339.28,-88.8 1318.28,-88.8 1315.28,-84.8 1213.72,-84.8 1213.72,-48.8 1342.28,-48.8 1342.28,-84.8"/>
<text text-anchor="middle" x="1278" y="-62.6" font-family="Times,serif" font-size="14.00">AppRoutingModule</text>
</g>
<!-- AppRoutingModule&#45;&gt;AppModule -->
<g id="edge9" class="edge">
<title>AppRoutingModule&#45;&gt;AppModule</title>
<path fill="none" stroke="black" d="M1278,-84.81C1278,-107.29 1278,-142.8 1278,-142.8 1278,-142.8 717.13,-142.8 717.13,-142.8"/>
<polygon fill="black" stroke="black" points="717.13,-139.3 707.13,-142.8 717.13,-146.3 717.13,-139.3"/>
</g>
</g>
</svg>
